<?xml version="1.0" encoding="UTF-8" standalone="no"?><svg xmlns="http://www.w3.org/2000/svg" xmlns:xlink="http://www.w3.org/1999/xlink" contentScriptType="application/ecmascript" contentStyleType="text/css" height="432px" preserveAspectRatio="none" style="width:872px;height:432px;" version="1.1" viewBox="0 0 872 432" width="872px" zoomAndPan="magnify"><defs><filter height="300%" id="fxcxbls" width="300%" x="-1" y="-1"><feGaussianBlur result="blurOut" stdDeviation="2.0"/><feColorMatrix in="blurOut" result="blurOut2" type="matrix" values="0 0 0 0 0 0 0 0 0 0 0 0 0 0 0 0 0 0 .4 0"/><feOffset dx="4.0" dy="4.0" in="blurOut2" result="blurOut3"/><feBlend in="SourceGraphic" in2="blurOut3" mode="normal"/></filter></defs><g><text fill="#000000" font-family="sans-serif" font-size="14" font-weight="bold" lengthAdjust="spacingAndGlyphs" textLength="140" x="370.25" y="26.0439">TcpClient Start Flow</text><line style="stroke: #A80036; stroke-width: 1.0; stroke-dasharray: 5.0,5.0;" x1="31" x2="31" y1="74.2402" y2="431.7842"/><line style="stroke: #A80036; stroke-width: 1.0; stroke-dasharray: 5.0,5.0;" x1="203.5" x2="203.5" y1="74.2402" y2="431.7842"/><line style="stroke: #A80036; stroke-width: 1.0; stroke-dasharray: 5.0,5.0;" x1="294.5" x2="294.5" y1="74.2402" y2="431.7842"/><line style="stroke: #A80036; stroke-width: 1.0; stroke-dasharray: 5.0,5.0;" x1="459" x2="459" y1="74.2402" y2="431.7842"/><line style="stroke: #A80036; stroke-width: 1.0; stroke-dasharray: 5.0,5.0;" x1="577.5" x2="577.5" y1="74.2402" y2="431.7842"/><line style="stroke: #A80036; stroke-width: 1.0; stroke-dasharray: 5.0,5.0;" x1="740.5" x2="740.5" y1="74.2402" y2="431.7842"/><rect fill="#FEFECE" filter="url(#fxcxbls)" height="33.1201" style="stroke: #A80036; stroke-width: 1.5;" width="43" x="8" y="36.1201"/><text fill="#000000" font-family="sans-serif" font-size="14" lengthAdjust="spacingAndGlyphs" textLength="29" x="15" y="59.1641">User</text><rect fill="#FEFECE" filter="url(#fxcxbls)" height="33.1201" style="stroke: #A80036; stroke-width: 1.5;" width="74" x="164.5" y="36.1201"/><text fill="#000000" font-family="sans-serif" font-size="14" lengthAdjust="spacingAndGlyphs" textLength="60" x="171.5" y="59.1641">TcpClient</text><rect fill="#FEFECE" filter="url(#fxcxbls)" height="33.1201" style="stroke: #A80036; stroke-width: 1.5;" width="80" x="252.5" y="36.1201"/><text fill="#000000" font-family="sans-serif" font-size="14" lengthAdjust="spacingAndGlyphs" textLength="66" x="259.5" y="59.1641">Connector</text><rect fill="#FEFECE" filter="url(#fxcxbls)" height="33.1201" style="stroke: #A80036; stroke-width: 1.5;" width="67" x="424" y="36.1201"/><text fill="#000000" font-family="sans-serif" font-size="14" lengthAdjust="spacingAndGlyphs" textLength="53" x="431" y="59.1641">Channel</text><rect fill="#FEFECE" filter="url(#fxcxbls)" height="33.1201" style="stroke: #A80036; stroke-width: 1.5;" width="82" x="534.5" y="36.1201"/><text fill="#000000" font-family="sans-serif" font-size="14" lengthAdjust="spacingAndGlyphs" textLength="68" x="541.5" y="59.1641">EventLoop</text><rect fill="#FEFECE" filter="url(#fxcxbls)" height="33.1201" style="stroke: #A80036; stroke-width: 1.5;" width="50" x="713.5" y="36.1201"/><text fill="#000000" font-family="sans-serif" font-size="14" lengthAdjust="spacingAndGlyphs" textLength="36" x="720.5" y="59.1641">Poller</text><polygon fill="#A80036" points="565.5,103.2402,575.5,107.2402,565.5,111.2402,569.5,107.2402" style="stroke: #A80036; stroke-width: 1.0;"/><line style="stroke: #A80036; stroke-width: 1.0; stroke-dasharray: 2.0,2.0;" x1="31.5" x2="571.5" y1="107.2402" y2="107.2402"/><text fill="#000000" font-family="sans-serif" font-size="13" lengthAdjust="spacingAndGlyphs" textLength="136" x="38.5" y="103.1382">new Eventloop instance</text><polygon fill="#A80036" points="191.5,134.9946,201.5,138.9946,191.5,142.9946,195.5,138.9946" style="stroke: #A80036; stroke-width: 1.0;"/><line style="stroke: #A80036; stroke-width: 1.0; stroke-dasharray: 2.0,2.0;" x1="31.5" x2="197.5" y1="138.9946" y2="138.9946"/><text fill="#000000" font-family="sans-serif" font-size="13" lengthAdjust="spacingAndGlyphs" textLength="148" x="38.5" y="134.8926">new client(server_ip_Port)</text><polygon fill="#A80036" points="191.5,166.749,201.5,170.749,191.5,174.749,195.5,170.749" style="stroke: #A80036; stroke-width: 1.0;"/><line style="stroke: #A80036; stroke-width: 1.0;" x1="31.5" x2="197.5" y1="170.749" y2="170.749"/><text fill="#000000" font-family="sans-serif" font-size="13" lengthAdjust="spacingAndGlyphs" textLength="54" x="38.5" y="166.647">connect()</text><polygon fill="#A80036" points="282.5,203.5034,292.5,207.5034,282.5,211.5034,286.5,207.5034" style="stroke: #A80036; stroke-width: 1.0;"/><line style="stroke: #A80036; stroke-width: 1.0;" x1="203.5" x2="288.5" y1="207.5034" y2="207.5034"/><text fill="#000000" font-family="sans-serif" font-size="13" lengthAdjust="spacingAndGlyphs" textLength="58" x="210.5" y="203.4014">connect():</text><polygon fill="#FBFB77" filter="url(#fxcxbls)" points="299,184.5034,299,211.5034,452,211.5034,452,194.5034,442,184.5034,299,184.5034" style="stroke: #A80036; stroke-width: 1.0;"/><line style="stroke: #A80036; stroke-width: 1.0;" x1="442" x2="442" y1="184.5034" y2="194.5034"/><line style="stroke: #A80036; stroke-width: 1.0;" x1="452" x2="442" y1="194.5034" y2="194.5034"/><text fill="#000000" font-family="sans-serif" font-size="13" lengthAdjust="spacingAndGlyphs" textLength="132" x="305" y="204.4014">start nonblock connect</text><polygon fill="#A80036" points="447.5,240.2578,457.5,244.2578,447.5,248.2578,451.5,244.2578" style="stroke: #A80036; stroke-width: 1.0;"/><line style="stroke: #A80036; stroke-width: 1.0;" x1="294.5" x2="453.5" y1="244.2578" y2="244.2578"/><text fill="#000000" font-family="sans-serif" font-size="13" lengthAdjust="spacingAndGlyphs" textLength="141" x="301.5" y="240.1558">new channel(connectFd)</text><polygon fill="#A80036" points="447.5,272.0122,457.5,276.0122,447.5,280.0122,451.5,276.0122" style="stroke: #A80036; stroke-width: 1.0;"/><line style="stroke: #A80036; stroke-width: 1.0;" x1="294.5" x2="453.5" y1="276.0122" y2="276.0122"/><text fill="#000000" font-family="sans-serif" font-size="13" lengthAdjust="spacingAndGlyphs" textLength="79" x="301.5" y="271.9102">enableWriting</text><polygon fill="#A80036" points="565.5,303.7666,575.5,307.7666,565.5,311.7666,569.5,307.7666" style="stroke: #A80036; stroke-width: 1.0;"/><line style="stroke: #A80036; stroke-width: 1.0;" x1="459.5" x2="571.5" y1="307.7666" y2="307.7666"/><text fill="#000000" font-family="sans-serif" font-size="13" lengthAdjust="spacingAndGlyphs" textLength="94" x="466.5" y="303.6646">updateChannel()</text><polygon fill="#A80036" points="728.5,340.521,738.5,344.521,728.5,348.521,732.5,344.521" style="stroke: #A80036; stroke-width: 1.0;"/><line style="stroke: #A80036; stroke-width: 1.0;" x1="577.5" x2="734.5" y1="344.521" y2="344.521"/><text fill="#000000" font-family="sans-serif" font-size="13" lengthAdjust="spacingAndGlyphs" textLength="94" x="584.5" y="340.4189">updateChannel()</text><polygon fill="#FBFB77" filter="url(#fxcxbls)" points="745,321.521,745,348.521,863,348.521,863,331.521,853,321.521,745,321.521" style="stroke: #A80036; stroke-width: 1.0;"/><line style="stroke: #A80036; stroke-width: 1.0;" x1="853" x2="853" y1="321.521" y2="331.521"/><line style="stroke: #A80036; stroke-width: 1.0;" x1="863" x2="853" y1="331.521" y2="331.521"/><text fill="#000000" font-family="sans-serif" font-size="13" lengthAdjust="spacingAndGlyphs" textLength="97" x="751" y="341.4189">add new channel</text><polygon fill="#A80036" points="565.5,377.2754,575.5,381.2754,565.5,385.2754,569.5,381.2754" style="stroke: #A80036; stroke-width: 1.0;"/><line style="stroke: #A80036; stroke-width: 1.0;" x1="31.5" x2="571.5" y1="381.2754" y2="381.2754"/><text fill="#000000" font-family="sans-serif" font-size="13" lengthAdjust="spacingAndGlyphs" textLength="32" x="38.5" y="377.1733">loop()</text><polygon fill="#A80036" points="728.5,409.0298,738.5,413.0298,728.5,417.0298,732.5,413.0298" style="stroke: #A80036; stroke-width: 1.0;"/><line style="stroke: #A80036; stroke-width: 1.0;" x1="577.5" x2="734.5" y1="413.0298" y2="413.0298"/><text fill="#000000" font-family="sans-serif" font-size="13" lengthAdjust="spacingAndGlyphs" textLength="139" x="584.5" y="408.9277">poll(): monitor IO Events</text></g></svg>