<?xml version="1.0" encoding="UTF-8" standalone="no"?><svg xmlns="http://www.w3.org/2000/svg" xmlns:xlink="http://www.w3.org/1999/xlink" contentScriptType="application/ecmascript" contentStyleType="text/css" height="374px" preserveAspectRatio="none" style="width:682px;height:374px;" version="1.1" viewBox="0 0 682 374" width="682px" zoomAndPan="magnify"><defs><filter height="300%" id="fqtq311" width="300%" x="-1" y="-1"><feGaussianBlur result="blurOut" stdDeviation="2.0"/><feColorMatrix in="blurOut" result="blurOut2" type="matrix" values="0 0 0 0 0 0 0 0 0 0 0 0 0 0 0 0 0 0 .4 0"/><feOffset dx="4.0" dy="4.0" in="blurOut2" result="blurOut3"/><feBlend in="SourceGraphic" in2="blurOut3" mode="normal"/></filter></defs><g><text fill="#000000" font-family="sans-serif" font-size="14" font-weight="bold" lengthAdjust="spacingAndGlyphs" textLength="147" x="269.5" y="26.0439">TcpServer Start Flow</text><rect fill="#FFFFFF" filter="url(#fqtq311)" height="138.0405" style="stroke: #000000; stroke-width: 2.0;" width="440" x="233" y="186.5034"/><line style="stroke: #A80036; stroke-width: 1.0; stroke-dasharray: 5.0,5.0;" x1="31" x2="31" y1="74.2402" y2="373.2983"/><line style="stroke: #A80036; stroke-width: 1.0; stroke-dasharray: 5.0,5.0;" x1="107" x2="107" y1="74.2402" y2="373.2983"/><line style="stroke: #A80036; stroke-width: 1.0; stroke-dasharray: 5.0,5.0;" x1="196" x2="196" y1="74.2402" y2="373.2983"/><line style="stroke: #A80036; stroke-width: 1.0; stroke-dasharray: 5.0,5.0;" x1="323" x2="323" y1="74.2402" y2="373.2983"/><line style="stroke: #A80036; stroke-width: 1.0; stroke-dasharray: 5.0,5.0;" x1="479" x2="479" y1="74.2402" y2="373.2983"/><line style="stroke: #A80036; stroke-width: 1.0; stroke-dasharray: 5.0,5.0;" x1="620" x2="620" y1="74.2402" y2="373.2983"/><rect fill="#FEFECE" filter="url(#fqtq311)" height="33.1201" style="stroke: #A80036; stroke-width: 1.5;" width="43" x="8" y="36.1201"/><text fill="#000000" font-family="sans-serif" font-size="14" lengthAdjust="spacingAndGlyphs" textLength="29" x="15" y="59.1641">User</text><rect fill="#FEFECE" filter="url(#fqtq311)" height="33.1201" style="stroke: #A80036; stroke-width: 1.5;" width="80" x="65" y="36.1201"/><text fill="#000000" font-family="sans-serif" font-size="14" lengthAdjust="spacingAndGlyphs" textLength="66" x="72" y="59.1641">TcpServer</text><rect fill="#FEFECE" filter="url(#fqtq311)" height="33.1201" style="stroke: #A80036; stroke-width: 1.5;" width="70" x="159" y="36.1201"/><text fill="#000000" font-family="sans-serif" font-size="14" lengthAdjust="spacingAndGlyphs" textLength="56" x="166" y="59.1641">Acceptor</text><rect fill="#FEFECE" filter="url(#fqtq311)" height="33.1201" style="stroke: #A80036; stroke-width: 1.5;" width="156" x="243" y="36.1201"/><text fill="#000000" font-family="sans-serif" font-size="14" lengthAdjust="spacingAndGlyphs" textLength="142" x="250" y="59.1641">EventLoopThreadPool</text><rect fill="#FEFECE" filter="url(#fqtq311)" height="33.1201" style="stroke: #A80036; stroke-width: 1.5;" width="128" x="413" y="36.1201"/><text fill="#000000" font-family="sans-serif" font-size="14" lengthAdjust="spacingAndGlyphs" textLength="114" x="420" y="59.1641">EventLoopThread</text><rect fill="#FEFECE" filter="url(#fqtq311)" height="33.1201" style="stroke: #A80036; stroke-width: 1.5;" width="82" x="577" y="36.1201"/><text fill="#000000" font-family="sans-serif" font-size="14" lengthAdjust="spacingAndGlyphs" textLength="68" x="584" y="59.1641">EventLoop</text><polygon fill="#A80036" points="95,103.2402,105,107.2402,95,111.2402,99,107.2402" style="stroke: #A80036; stroke-width: 1.0;"/><line style="stroke: #A80036; stroke-width: 1.0; stroke-dasharray: 2.0,2.0;" x1="31.5" x2="101" y1="107.2402" y2="107.2402"/><text fill="#000000" font-family="sans-serif" font-size="13" lengthAdjust="spacingAndGlyphs" textLength="44" x="38.5" y="103.1382">set port</text><polygon fill="#A80036" points="95,134.9946,105,138.9946,95,142.9946,99,138.9946" style="stroke: #A80036; stroke-width: 1.0;"/><line style="stroke: #A80036; stroke-width: 1.0;" x1="31.5" x2="101" y1="138.9946" y2="138.9946"/><text fill="#000000" font-family="sans-serif" font-size="13" lengthAdjust="spacingAndGlyphs" textLength="34" x="38.5" y="134.8926">start()</text><polygon fill="#A80036" points="311,166.749,321,170.749,311,174.749,315,170.749" style="stroke: #A80036; stroke-width: 1.0;"/><line style="stroke: #A80036; stroke-width: 1.0;" x1="107" x2="317" y1="170.749" y2="170.749"/><text fill="#000000" font-family="sans-serif" font-size="13" lengthAdjust="spacingAndGlyphs" textLength="70" x="114" y="166.647">createPool()</text><rect fill="none" height="138.0405" style="stroke: #000000; stroke-width: 2.0;" width="440" x="233" y="186.5034"/><polygon fill="#EEEEEE" points="233,186.5034,306,186.5034,306,195.5034,296,205.5034,233,205.5034,233,186.5034" style="stroke: #000000; stroke-width: 2.0;"/><text fill="#000000" font-family="sans-serif" font-size="13" font-weight="bold" lengthAdjust="spacingAndGlyphs" textLength="28" x="248" y="202.4014">loop</text><text fill="#000000" font-family="sans-serif" font-size="11" font-weight="bold" lengthAdjust="spacingAndGlyphs" textLength="64" x="321" y="201.1094">[N Threads]</text><polygon fill="#A80036" points="467,230.2808,477,234.2808,467,238.2808,471,234.2808" style="stroke: #A80036; stroke-width: 1.0;"/><line style="stroke: #A80036; stroke-width: 1.0;" x1="323" x2="473" y1="234.2808" y2="234.2808"/><text fill="#000000" font-family="sans-serif" font-size="13" lengthAdjust="spacingAndGlyphs" textLength="112" x="330" y="230.1787">new thread,wait run</text><polygon fill="#FBFB77" filter="url(#fqtq311)" points="484,211.2808,484,238.2808,653,238.2808,653,221.2808,643,211.2808,484,211.2808" style="stroke: #A80036; stroke-width: 1.0;"/><line style="stroke: #A80036; stroke-width: 1.0;" x1="643" x2="643" y1="211.2808" y2="221.2808"/><line style="stroke: #A80036; stroke-width: 1.0;" x1="653" x2="643" y1="221.2808" y2="221.2808"/><text fill="#000000" font-family="sans-serif" font-size="13" lengthAdjust="spacingAndGlyphs" textLength="148" x="490" y="231.1787">block until new thread run</text><line style="stroke: #A80036; stroke-width: 1.0;" x1="479" x2="521" y1="271.7896" y2="271.7896"/><line style="stroke: #A80036; stroke-width: 1.0;" x1="521" x2="521" y1="271.7896" y2="284.7896"/><line style="stroke: #A80036; stroke-width: 1.0;" x1="480" x2="521" y1="284.7896" y2="284.7896"/><polygon fill="#A80036" points="490,280.7896,480,284.7896,490,288.7896,486,284.7896" style="stroke: #A80036; stroke-width: 1.0;"/><text fill="#000000" font-family="sans-serif" font-size="13" lengthAdjust="spacingAndGlyphs" textLength="62" x="486" y="266.9331">std::thread</text><polygon fill="#A80036" points="608,311.7896,618,315.7896,608,319.7896,612,315.7896" style="stroke: #A80036; stroke-width: 1.0;"/><line style="stroke: #A80036; stroke-width: 1.0;" x1="479" x2="614" y1="315.7896" y2="315.7896"/><text fill="#000000" font-family="sans-serif" font-size="13" lengthAdjust="spacingAndGlyphs" textLength="117" x="486" y="311.6875">create loop instance</text><polygon fill="#A80036" points="184,350.5439,194,354.5439,184,358.5439,188,354.5439" style="stroke: #A80036; stroke-width: 1.0;"/><line style="stroke: #A80036; stroke-width: 1.0;" x1="107" x2="190" y1="354.5439" y2="354.5439"/><text fill="#000000" font-family="sans-serif" font-size="13" lengthAdjust="spacingAndGlyphs" textLength="39" x="114" y="350.4419">listen()</text></g></svg>