<?xml version="1.0" encoding="UTF-8" standalone="no"?><svg xmlns="http://www.w3.org/2000/svg" xmlns:xlink="http://www.w3.org/1999/xlink" contentScriptType="application/ecmascript" contentStyleType="text/css" height="705px" preserveAspectRatio="none" style="width:925px;height:705px;" version="1.1" viewBox="0 0 925 705" width="925px" zoomAndPan="magnify"><defs><filter height="300%" id="f734pxh" width="300%" x="-1" y="-1"><feGaussianBlur result="blurOut" stdDeviation="2.0"/><feColorMatrix in="blurOut" result="blurOut2" type="matrix" values="0 0 0 0 0 0 0 0 0 0 0 0 0 0 0 0 0 0 .4 0"/><feOffset dx="4.0" dy="4.0" in="blurOut2" result="blurOut3"/><feBlend in="SourceGraphic" in2="blurOut3" mode="normal"/></filter></defs><g><text fill="#000000" font-family="sans-serif" font-size="14" font-weight="bold" lengthAdjust="spacingAndGlyphs" textLength="140" x="394.25" y="26.0439">TcpClient Start Flow</text><line style="stroke: #A80036; stroke-width: 1.0; stroke-dasharray: 5.0,5.0;" x1="31" x2="31" y1="74.2402" y2="704.0649"/><line style="stroke: #A80036; stroke-width: 1.0; stroke-dasharray: 5.0,5.0;" x1="203.5" x2="203.5" y1="74.2402" y2="704.0649"/><line style="stroke: #A80036; stroke-width: 1.0; stroke-dasharray: 5.0,5.0;" x1="323.5" x2="323.5" y1="74.2402" y2="704.0649"/><line style="stroke: #A80036; stroke-width: 1.0; stroke-dasharray: 5.0,5.0;" x1="488" x2="488" y1="74.2402" y2="704.0649"/><line style="stroke: #A80036; stroke-width: 1.0; stroke-dasharray: 5.0,5.0;" x1="606.5" x2="606.5" y1="74.2402" y2="704.0649"/><line style="stroke: #A80036; stroke-width: 1.0; stroke-dasharray: 5.0,5.0;" x1="769.5" x2="769.5" y1="74.2402" y2="704.0649"/><line style="stroke: #A80036; stroke-width: 1.0; stroke-dasharray: 5.0,5.0;" x1="863.5" x2="863.5" y1="74.2402" y2="704.0649"/><rect fill="#FEFECE" filter="url(#f734pxh)" height="33.1201" style="stroke: #A80036; stroke-width: 1.5;" width="43" x="8" y="36.1201"/><text fill="#000000" font-family="sans-serif" font-size="14" lengthAdjust="spacingAndGlyphs" textLength="29" x="15" y="59.1641">User</text><rect fill="#FEFECE" filter="url(#f734pxh)" height="33.1201" style="stroke: #A80036; stroke-width: 1.5;" width="74" x="164.5" y="36.1201"/><text fill="#000000" font-family="sans-serif" font-size="14" lengthAdjust="spacingAndGlyphs" textLength="60" x="171.5" y="59.1641">TcpClient</text><rect fill="#FEFECE" filter="url(#f734pxh)" height="33.1201" style="stroke: #A80036; stroke-width: 1.5;" width="80" x="281.5" y="36.1201"/><text fill="#000000" font-family="sans-serif" font-size="14" lengthAdjust="spacingAndGlyphs" textLength="66" x="288.5" y="59.1641">Connector</text><rect fill="#FEFECE" filter="url(#f734pxh)" height="33.1201" style="stroke: #A80036; stroke-width: 1.5;" width="67" x="453" y="36.1201"/><text fill="#000000" font-family="sans-serif" font-size="14" lengthAdjust="spacingAndGlyphs" textLength="53" x="460" y="59.1641">Channel</text><rect fill="#FEFECE" filter="url(#f734pxh)" height="33.1201" style="stroke: #A80036; stroke-width: 1.5;" width="82" x="563.5" y="36.1201"/><text fill="#000000" font-family="sans-serif" font-size="14" lengthAdjust="spacingAndGlyphs" textLength="68" x="570.5" y="59.1641">EventLoop</text><rect fill="#FEFECE" filter="url(#f734pxh)" height="33.1201" style="stroke: #A80036; stroke-width: 1.5;" width="50" x="742.5" y="36.1201"/><text fill="#000000" font-family="sans-serif" font-size="14" lengthAdjust="spacingAndGlyphs" textLength="36" x="749.5" y="59.1641">Poller</text><rect fill="#FEFECE" filter="url(#f734pxh)" height="33.1201" style="stroke: #A80036; stroke-width: 1.5;" width="110" x="806.5" y="36.1201"/><text fill="#000000" font-family="sans-serif" font-size="14" lengthAdjust="spacingAndGlyphs" textLength="96" x="813.5" y="59.1641">TcpConnection</text><polygon fill="#A80036" points="594.5,103.2402,604.5,107.2402,594.5,111.2402,598.5,107.2402" style="stroke: #A80036; stroke-width: 1.0;"/><line style="stroke: #A80036; stroke-width: 1.0; stroke-dasharray: 2.0,2.0;" x1="31.5" x2="600.5" y1="107.2402" y2="107.2402"/><text fill="#000000" font-family="sans-serif" font-size="13" lengthAdjust="spacingAndGlyphs" textLength="136" x="38.5" y="103.1382">new Eventloop instance</text><polygon fill="#A80036" points="191.5,139.9946,201.5,143.9946,191.5,147.9946,195.5,143.9946" style="stroke: #A80036; stroke-width: 1.0;"/><line style="stroke: #A80036; stroke-width: 1.0; stroke-dasharray: 2.0,2.0;" x1="31.5" x2="197.5" y1="143.9946" y2="143.9946"/><text fill="#000000" font-family="sans-serif" font-size="13" lengthAdjust="spacingAndGlyphs" textLength="148" x="38.5" y="139.8926">new client(server_ip_Port)</text><polygon fill="#FBFB77" filter="url(#f734pxh)" points="208,120.9946,208,147.9946,297,147.9946,297,130.9946,287,120.9946,208,120.9946" style="stroke: #A80036; stroke-width: 1.0;"/><line style="stroke: #A80036; stroke-width: 1.0;" x1="287" x2="287" y1="120.9946" y2="130.9946"/><line style="stroke: #A80036; stroke-width: 1.0;" x1="297" x2="287" y1="130.9946" y2="130.9946"/><text fill="#000000" font-family="sans-serif" font-size="13" lengthAdjust="spacingAndGlyphs" textLength="68" x="214" y="140.8926">setCallback</text><polygon fill="#A80036" points="191.5,176.749,201.5,180.749,191.5,184.749,195.5,180.749" style="stroke: #A80036; stroke-width: 1.0;"/><line style="stroke: #A80036; stroke-width: 1.0;" x1="31.5" x2="197.5" y1="180.749" y2="180.749"/><text fill="#000000" font-family="sans-serif" font-size="13" lengthAdjust="spacingAndGlyphs" textLength="54" x="38.5" y="176.647">connect()</text><polygon fill="#A80036" points="311.5,213.5034,321.5,217.5034,311.5,221.5034,315.5,217.5034" style="stroke: #A80036; stroke-width: 1.0;"/><line style="stroke: #A80036; stroke-width: 1.0;" x1="203.5" x2="317.5" y1="217.5034" y2="217.5034"/><text fill="#000000" font-family="sans-serif" font-size="13" lengthAdjust="spacingAndGlyphs" textLength="58" x="210.5" y="213.4014">connect():</text><polygon fill="#FBFB77" filter="url(#f734pxh)" points="328,194.5034,328,221.5034,437,221.5034,437,204.5034,427,194.5034,328,194.5034" style="stroke: #A80036; stroke-width: 1.0;"/><line style="stroke: #A80036; stroke-width: 1.0;" x1="427" x2="427" y1="194.5034" y2="204.5034"/><line style="stroke: #A80036; stroke-width: 1.0;" x1="437" x2="427" y1="204.5034" y2="204.5034"/><text fill="#000000" font-family="sans-serif" font-size="13" lengthAdjust="spacingAndGlyphs" textLength="88" x="334" y="214.4014">new connectFd</text><polygon fill="#A80036" points="476.5,255.2578,486.5,259.2578,476.5,263.2578,480.5,259.2578" style="stroke: #A80036; stroke-width: 1.0;"/><line style="stroke: #A80036; stroke-width: 1.0;" x1="323.5" x2="482.5" y1="259.2578" y2="259.2578"/><text fill="#000000" font-family="sans-serif" font-size="13" lengthAdjust="spacingAndGlyphs" textLength="141" x="330.5" y="255.1558">new channel(connectFd)</text><polygon fill="#FBFB77" filter="url(#f734pxh)" points="493,236.2578,493,263.2578,582,263.2578,582,246.2578,572,236.2578,493,236.2578" style="stroke: #A80036; stroke-width: 1.0;"/><line style="stroke: #A80036; stroke-width: 1.0;" x1="572" x2="572" y1="236.2578" y2="246.2578"/><line style="stroke: #A80036; stroke-width: 1.0;" x1="582" x2="572" y1="246.2578" y2="246.2578"/><text fill="#000000" font-family="sans-serif" font-size="13" lengthAdjust="spacingAndGlyphs" textLength="68" x="499" y="256.1558">setCallback</text><polygon fill="#A80036" points="476.5,292.0122,486.5,296.0122,476.5,300.0122,480.5,296.0122" style="stroke: #A80036; stroke-width: 1.0;"/><line style="stroke: #A80036; stroke-width: 1.0;" x1="323.5" x2="482.5" y1="296.0122" y2="296.0122"/><text fill="#000000" font-family="sans-serif" font-size="13" lengthAdjust="spacingAndGlyphs" textLength="79" x="330.5" y="291.9102">enableWriting</text><polygon fill="#A80036" points="594.5,323.7666,604.5,327.7666,594.5,331.7666,598.5,327.7666" style="stroke: #A80036; stroke-width: 1.0;"/><line style="stroke: #A80036; stroke-width: 1.0;" x1="488.5" x2="600.5" y1="327.7666" y2="327.7666"/><text fill="#000000" font-family="sans-serif" font-size="13" lengthAdjust="spacingAndGlyphs" textLength="94" x="495.5" y="323.6646">updateChannel()</text><polygon fill="#A80036" points="757.5,360.521,767.5,364.521,757.5,368.521,761.5,364.521" style="stroke: #A80036; stroke-width: 1.0;"/><line style="stroke: #A80036; stroke-width: 1.0;" x1="606.5" x2="763.5" y1="364.521" y2="364.521"/><text fill="#000000" font-family="sans-serif" font-size="13" lengthAdjust="spacingAndGlyphs" textLength="94" x="613.5" y="360.4189">updateChannel()</text><polygon fill="#FBFB77" filter="url(#f734pxh)" points="774,341.521,774,368.521,885,368.521,885,351.521,875,341.521,774,341.521" style="stroke: #A80036; stroke-width: 1.0;"/><line style="stroke: #A80036; stroke-width: 1.0;" x1="875" x2="875" y1="341.521" y2="351.521"/><line style="stroke: #A80036; stroke-width: 1.0;" x1="885" x2="875" y1="351.521" y2="351.521"/><text fill="#000000" font-family="sans-serif" font-size="13" lengthAdjust="spacingAndGlyphs" textLength="90" x="780" y="361.4189">add new sockfd</text><polygon fill="#A80036" points="594.5,397.2754,604.5,401.2754,594.5,405.2754,598.5,401.2754" style="stroke: #A80036; stroke-width: 1.0;"/><line style="stroke: #A80036; stroke-width: 1.0;" x1="31.5" x2="600.5" y1="401.2754" y2="401.2754"/><text fill="#000000" font-family="sans-serif" font-size="13" lengthAdjust="spacingAndGlyphs" textLength="32" x="38.5" y="397.1733">loop()</text><polygon fill="#A80036" points="757.5,429.0298,767.5,433.0298,757.5,437.0298,761.5,433.0298" style="stroke: #A80036; stroke-width: 1.0;"/><line style="stroke: #A80036; stroke-width: 1.0;" x1="606.5" x2="763.5" y1="433.0298" y2="433.0298"/><text fill="#000000" font-family="sans-serif" font-size="13" lengthAdjust="spacingAndGlyphs" textLength="139" x="613.5" y="428.9277">poll(): monitor IO Events</text><polygon fill="#A80036" points="617.5,465.7842,607.5,469.7842,617.5,473.7842,613.5,469.7842" style="stroke: #A80036; stroke-width: 1.0;"/><line style="stroke: #A80036; stroke-width: 1.0; stroke-dasharray: 2.0,2.0;" x1="611.5" x2="768.5" y1="469.7842" y2="469.7842"/><text fill="#000000" font-family="sans-serif" font-size="13" lengthAdjust="spacingAndGlyphs" textLength="89" x="623.5" y="465.6821">ActiveChannels</text><polygon fill="#FBFB77" filter="url(#f734pxh)" points="467,446.7842,467,473.7842,597,473.7842,597,456.7842,587,446.7842,467,446.7842" style="stroke: #A80036; stroke-width: 1.0;"/><line style="stroke: #A80036; stroke-width: 1.0;" x1="587" x2="587" y1="446.7842" y2="456.7842"/><line style="stroke: #A80036; stroke-width: 1.0;" x1="597" x2="587" y1="456.7842" y2="456.7842"/><text fill="#000000" font-family="sans-serif" font-size="13" lengthAdjust="spacingAndGlyphs" textLength="109" x="473" y="466.6821">accepted by server</text><polygon fill="#A80036" points="499.5,507.5386,489.5,511.5386,499.5,515.5386,495.5,511.5386" style="stroke: #A80036; stroke-width: 1.0;"/><line style="stroke: #A80036; stroke-width: 1.0;" x1="493.5" x2="605.5" y1="511.5386" y2="511.5386"/><text fill="#000000" font-family="sans-serif" font-size="13" lengthAdjust="spacingAndGlyphs" textLength="70" x="505.5" y="507.4365">handleEvent</text><polygon fill="#FBFB77" filter="url(#f734pxh)" points="611,488.5386,611,515.5386,777,515.5386,777,498.5386,767,488.5386,611,488.5386" style="stroke: #A80036; stroke-width: 1.0;"/><line style="stroke: #A80036; stroke-width: 1.0;" x1="767" x2="767" y1="488.5386" y2="498.5386"/><line style="stroke: #A80036; stroke-width: 1.0;" x1="777" x2="767" y1="498.5386" y2="498.5386"/><text fill="#000000" font-family="sans-serif" font-size="13" lengthAdjust="spacingAndGlyphs" textLength="145" x="617" y="508.4365">dispatchEventToCallback</text><polygon fill="#A80036" points="334.5,544.293,324.5,548.293,334.5,552.293,330.5,548.293" style="stroke: #A80036; stroke-width: 1.0;"/><line style="stroke: #A80036; stroke-width: 1.0;" x1="328.5" x2="487.5" y1="548.293" y2="548.293"/><text fill="#000000" font-family="sans-serif" font-size="13" lengthAdjust="spacingAndGlyphs" textLength="77" x="340.5" y="544.1909">handleWrite()</text><polygon fill="#A80036" points="214.5,576.0474,204.5,580.0474,214.5,584.0474,210.5,580.0474" style="stroke: #A80036; stroke-width: 1.0;"/><line style="stroke: #A80036; stroke-width: 1.0;" x1="208.5" x2="322.5" y1="580.0474" y2="580.0474"/><text fill="#000000" font-family="sans-serif" font-size="13" lengthAdjust="spacingAndGlyphs" textLength="96" x="220.5" y="575.9453">newConnection()</text><polygon fill="#A80036" points="851.5,607.8018,861.5,611.8018,851.5,615.8018,855.5,611.8018" style="stroke: #A80036; stroke-width: 1.0;"/><line style="stroke: #A80036; stroke-width: 1.0; stroke-dasharray: 2.0,2.0;" x1="203.5" x2="857.5" y1="611.8018" y2="611.8018"/><text fill="#000000" font-family="sans-serif" font-size="13" lengthAdjust="spacingAndGlyphs" textLength="124" x="210.5" y="607.6997">new a TcpConnection</text><polygon fill="#A80036" points="851.5,639.5562,861.5,643.5562,851.5,647.5562,855.5,643.5562" style="stroke: #A80036; stroke-width: 1.0;"/><line style="stroke: #A80036; stroke-width: 1.0;" x1="203.5" x2="857.5" y1="643.5562" y2="643.5562"/><text fill="#000000" font-family="sans-serif" font-size="13" lengthAdjust="spacingAndGlyphs" textLength="122" x="210.5" y="639.4541">connectEstablished()</text><polygon fill="#A80036" points="499.5,676.3105,489.5,680.3105,499.5,684.3105,495.5,680.3105" style="stroke: #A80036; stroke-width: 1.0;"/><line style="stroke: #A80036; stroke-width: 1.0;" x1="493.5" x2="862.5" y1="680.3105" y2="680.3105"/><text fill="#000000" font-family="sans-serif" font-size="13" lengthAdjust="spacingAndGlyphs" textLength="93" x="505.5" y="676.2085">enableReading()</text><polygon fill="#FBFB77" filter="url(#f734pxh)" points="371,657.3105,371,684.3105,479,684.3105,479,667.3105,469,657.3105,371,657.3105" style="stroke: #A80036; stroke-width: 1.0;"/><line style="stroke: #A80036; stroke-width: 1.0;" x1="469" x2="469" y1="657.3105" y2="667.3105"/><line style="stroke: #A80036; stroke-width: 1.0;" x1="479" x2="469" y1="667.3105" y2="667.3105"/><text fill="#000000" font-family="sans-serif" font-size="13" lengthAdjust="spacingAndGlyphs" textLength="87" x="377" y="677.2085">add fd to Poller</text></g></svg>
